<svg width="468" height="75" viewBox="0 0 468 75" fill="none" xmlns="http://www.w3.org/2000/svg">
<path d="M19.5505 50.4273L31.3783 18.1445H38.127L23.1684 56.2716H15.7935L0.834899 18.1445H7.65324L19.5505 50.4273ZM47.6273 11.9524C46.4213 11.9524 45.4009 11.5349 44.566 10.7C43.7311 9.86511 43.3136 8.84467 43.3136 7.63871C43.3136 6.43275 43.7311 5.41231 44.566 4.57742C45.4009 3.74252 46.4213 3.32507 47.6273 3.32507C48.7869 3.32507 49.7609 3.74252 50.5494 4.57742C51.3843 5.41231 51.8018 6.43275 51.8018 7.63871C51.8018 8.84467 51.3843 9.86511 50.5494 10.7C49.7609 11.5349 48.7869 11.9524 47.6273 11.9524ZM50.6886 18.1445V56.2716H44.3573V18.1445H50.6886ZM80.0557 17.4488C84.694 17.4488 88.4511 18.8635 91.3268 21.6928C94.2026 24.4758 95.6405 28.5112 95.6405 33.7989V56.2716H89.3787V34.7033C89.3787 30.8999 88.4279 28.001 86.5262 26.0065C84.6244 23.9656 82.027 22.9452 78.7338 22.9452C75.3942 22.9452 72.7271 23.9888 70.7327 26.0761C68.7846 28.1633 67.8105 31.2014 67.8105 35.1904V56.2716H61.4792V18.1445H67.8105V23.5714C69.0629 21.6233 70.7559 20.1158 72.8895 19.049C75.0695 17.9822 77.4582 17.4488 80.0557 17.4488ZM109.253 11.9524C108.047 11.9524 107.026 11.5349 106.191 10.7C105.356 9.86511 104.939 8.84467 104.939 7.63871C104.939 6.43275 105.356 5.41231 106.191 4.57742C107.026 3.74252 108.047 3.32507 109.253 3.32507C110.412 3.32507 111.386 3.74252 112.175 4.57742C113.01 5.41231 113.427 6.43275 113.427 7.63871C113.427 8.84467 113.01 9.86511 112.175 10.7C111.386 11.5349 110.412 11.9524 109.253 11.9524ZM112.314 18.1445V56.2716H105.983V18.1445H112.314ZM120.739 37.1385C120.739 33.1959 121.528 29.7635 123.105 26.8414C124.682 23.8729 126.862 21.5769 129.645 19.9535C132.474 18.3301 135.698 17.5183 139.316 17.5183C144 17.5183 147.85 18.6547 150.865 20.9275C153.926 23.2003 155.944 26.3544 156.918 30.3897H150.1C149.45 28.0705 148.175 26.2384 146.273 24.8933C144.418 23.5482 142.099 22.8756 139.316 22.8756C135.698 22.8756 132.776 24.128 130.549 26.6327C128.323 29.091 127.21 32.5929 127.21 37.1385C127.21 41.7304 128.323 45.2787 130.549 47.7834C132.776 50.2881 135.698 51.5405 139.316 51.5405C142.099 51.5405 144.418 50.8911 146.273 49.5924C148.128 48.2936 149.404 46.4383 150.1 44.0264H156.918C155.898 47.9226 153.857 51.0534 150.795 53.419C147.734 55.7382 143.908 56.8977 139.316 56.8977C135.698 56.8977 132.474 56.086 129.645 54.4626C126.862 52.8392 124.682 50.5432 123.105 47.5747C121.528 44.6062 120.739 41.1274 120.739 37.1385ZM168.636 11.9524C167.43 11.9524 166.41 11.5349 165.575 10.7C164.74 9.86511 164.322 8.84467 164.322 7.63871C164.322 6.43275 164.74 5.41231 165.575 4.57742C166.41 3.74252 167.43 3.32507 168.636 3.32507C169.796 3.32507 170.77 3.74252 171.558 4.57742C172.393 5.41231 172.81 6.43275 172.81 7.63871C172.81 8.84467 172.393 9.86511 171.558 10.7C170.77 11.5349 169.796 11.9524 168.636 11.9524ZM171.697 18.1445V56.2716H165.366V18.1445H171.697ZM216.301 18.1445V56.2716H209.97V50.636C208.764 52.5841 207.071 54.1147 204.891 55.2279C202.757 56.2948 200.392 56.8282 197.794 56.8282C194.826 56.8282 192.159 56.2252 189.793 55.0192C187.428 53.7669 185.549 51.9115 184.158 49.4532C182.813 46.9949 182.14 44.0032 182.14 40.4781V18.1445H188.402V39.6432C188.402 43.4002 189.353 46.2992 191.254 48.34C193.156 50.3345 195.753 51.3317 199.047 51.3317C202.433 51.3317 205.1 50.2881 207.048 48.2009C208.996 46.1136 209.97 43.0755 209.97 39.0866V18.1445H216.301ZM240.489 56.8977C237.567 56.8977 234.946 56.4107 232.627 55.4367C230.308 54.4162 228.476 53.0247 227.13 51.2622C225.785 49.4532 225.043 47.3892 224.904 45.07H231.444C231.63 46.9717 232.511 48.5256 234.088 49.7315C235.711 50.9375 237.822 51.5405 240.419 51.5405C242.831 51.5405 244.733 51.0071 246.124 49.9402C247.516 48.8734 248.212 47.5283 248.212 45.9049C248.212 44.2351 247.47 43.0059 245.985 42.2174C244.501 41.3825 242.205 40.5708 239.097 39.7823C236.268 39.0402 233.949 38.298 232.14 37.5559C230.377 36.7674 228.847 35.631 227.548 34.1467C226.296 32.6161 225.669 30.6216 225.669 28.1633C225.669 26.2152 226.249 24.4295 227.409 22.806C228.568 21.1826 230.215 19.9071 232.349 18.9794C234.482 18.0054 236.917 17.5183 239.654 17.5183C243.875 17.5183 247.284 18.5852 249.881 20.7188C252.479 22.8524 253.87 25.7746 254.056 29.4852H247.725C247.586 27.4907 246.774 25.8905 245.29 24.6846C243.852 23.4786 241.904 22.8756 239.445 22.8756C237.172 22.8756 235.364 23.3626 234.018 24.3367C232.673 25.3107 232.001 26.5863 232.001 28.1633C232.001 29.4157 232.395 30.4593 233.184 31.2942C234.018 32.0827 235.039 32.7321 236.245 33.2423C237.497 33.7061 239.213 34.2395 241.393 34.8425C244.13 35.5846 246.356 36.3268 248.073 37.0689C249.789 37.7646 251.25 38.8315 252.456 40.2693C253.708 41.7072 254.357 43.5857 254.404 45.9049C254.404 47.9921 253.824 49.8707 252.664 51.5405C251.505 53.2103 249.858 54.5322 247.725 55.5062C245.637 56.4339 243.225 56.8977 240.489 56.8977ZM291.979 46.4615H308.816V56.2716H278.69V46.8094L294.831 27.2588H278.829V17.4488H308.468V26.911L291.979 46.4615ZM333.034 56.8282C329.231 56.8282 325.799 56.0165 322.737 54.393C319.722 52.7696 317.334 50.4505 315.571 47.4355C313.855 44.4206 312.997 40.8955 312.997 36.8602C312.997 32.8712 313.878 29.3693 315.641 26.3544C317.403 23.2931 319.815 20.9507 322.876 19.3273C325.938 17.7039 329.37 16.8922 333.173 16.8922C336.977 16.8922 340.409 17.7039 343.471 19.3273C346.532 20.9507 348.944 23.2931 350.706 26.3544C352.469 29.3693 353.35 32.8712 353.35 36.8602C353.35 40.8491 352.446 44.3743 350.637 47.4355C348.874 50.4505 346.439 52.7696 343.331 54.393C340.27 56.0165 336.838 56.8282 333.034 56.8282ZM333.034 46.5311C335.307 46.5311 337.232 45.6962 338.809 44.0264C340.432 42.3566 341.244 39.9678 341.244 36.8602C341.244 33.7525 340.456 31.3637 338.879 29.694C337.348 28.0242 335.446 27.1893 333.173 27.1893C330.854 27.1893 328.929 28.0242 327.399 29.694C325.868 31.3174 325.103 33.7061 325.103 36.8602C325.103 39.9678 325.845 42.3566 327.329 44.0264C328.86 45.6962 330.762 46.5311 333.034 46.5311ZM371.559 22.9452C372.719 21.1362 374.319 19.6752 376.36 18.562C378.401 17.4488 380.79 16.8922 383.526 16.8922C386.727 16.8922 389.626 17.7039 392.223 19.3273C394.82 20.9507 396.861 23.2699 398.346 26.2848C399.876 29.2997 400.642 32.8016 400.642 36.7906C400.642 40.7796 399.876 44.3047 398.346 47.366C396.861 50.3809 394.82 52.7232 392.223 54.393C389.626 56.0165 386.727 56.8282 383.526 56.8282C380.836 56.8282 378.447 56.2716 376.36 55.1584C374.319 54.0452 372.719 52.6073 371.559 50.8447V74.7785H359.662V17.4488H371.559V22.9452ZM388.536 36.7906C388.536 33.8221 387.701 31.5029 386.031 29.8331C384.407 28.1169 382.39 27.2588 379.978 27.2588C377.612 27.2588 375.595 28.1169 373.925 29.8331C372.301 31.5493 371.49 33.8916 371.49 36.8602C371.49 39.8287 372.301 42.171 373.925 43.8872C375.595 45.6034 377.612 46.4615 379.978 46.4615C382.343 46.4615 384.361 45.6034 386.031 43.8872C387.701 42.1247 388.536 39.7591 388.536 36.7906ZM418.78 22.9452C419.94 21.1362 421.54 19.6752 423.581 18.562C425.622 17.4488 428.011 16.8922 430.747 16.8922C433.948 16.8922 436.847 17.7039 439.444 19.3273C442.042 20.9507 444.083 23.2699 445.567 26.2848C447.097 29.2997 447.863 32.8016 447.863 36.7906C447.863 40.7796 447.097 44.3047 445.567 47.366C444.083 50.3809 442.042 52.7232 439.444 54.393C436.847 56.0165 433.948 56.8282 430.747 56.8282C428.057 56.8282 425.668 56.2716 423.581 55.1584C421.54 54.0452 419.94 52.6073 418.78 50.8447V74.7785H406.883V17.4488H418.78V22.9452ZM435.757 36.7906C435.757 33.8221 434.922 31.5029 433.252 29.8331C431.629 28.1169 429.611 27.2588 427.199 27.2588C424.834 27.2588 422.816 28.1169 421.146 29.8331C419.523 31.5493 418.711 33.8916 418.711 36.8602C418.711 39.8287 419.523 42.171 421.146 43.8872C422.816 45.6034 424.834 46.4615 427.199 46.4615C429.565 46.4615 431.582 45.6034 433.252 43.8872C434.922 42.1247 435.757 39.7591 435.757 36.7906ZM460.088 13.4134C458.001 13.4134 456.284 12.8104 454.939 11.6045C453.641 10.3521 452.991 8.82148 452.991 7.01254C452.991 5.15721 453.641 3.62656 454.939 2.42059C456.284 1.16824 458.001 0.54207 460.088 0.54207C462.129 0.54207 463.799 1.16824 465.097 2.42059C466.442 3.62656 467.115 5.15721 467.115 7.01254C467.115 8.82148 466.442 10.3521 465.097 11.6045C463.799 12.8104 462.129 13.4134 460.088 13.4134ZM466.002 17.4488V56.2716H454.104V17.4488H466.002Z" fill="#09000F"/>
</svg>
